# xmcd CD database file
# Copyright (C) 1997 Ti Kan
#
# Track frame offsets:
#  183
#  16375
#  31528
#  44480
#  57135
#  71315
#  88040
#  99973
#  115255
#  130033
#  141190
#  160443
#  174703
#  197558
#  213215
#  226918
#  241900
#  257208
#  277363
#  291765
#
# Disc length: 4080 seconds
#
# Revision: 1
# Processed by: cddbd v1.4b41PL1 Copyright (c) Steve Scherf et al.
# Submitted via: CDWizzard Release:4.32
#
DISCID=1a0fee14
DTITLE=Girlschool - Screaming Blue Murder - Play Dirty
DYEAR=1900
DGENRE=
TTITLE0=Screaming Blue Murder
TTITLE1=Live With Me
TTITLE2=Take It From Me
TTITLE3=Wildlife
TTITLE4=It Turns Your Head Around
TTITLE5=Don't Call It Love
TTITLE6=Hellrazor
TTITLE7=When Your Blood Runs Cold
TTITLE8=You Got Me
TTITLE9=Flesh And Blood
TTITLE10=Going Under
TTITLE11=High 'N' Dry
TTITLE12=Play Dirty
TTITLE13=20th Century Boy
TTITLE14=Breaking All The Rules
TTITLE15=Burning In The Heat
TTITLE16=Surrender
TTITLE17=Rock Me Shock Me
TTITLE18=Running For Cover
TTITLE19=Breakout (Knob In The Media)
EXTD=Double CD
EXTT0=
EXTT1=
EXTT2=
EXTT3=
EXTT4=
EXTT5=
EXTT6=
EXTT7=
EXTT8=
EXTT9=
EXTT10=
EXTT11=
EXTT12=
EXTT13=
EXTT14=
EXTT15=
EXTT16=
EXTT17=
EXTT18=
EXTT19=
PLAYORDER=
